<svg xmlns="http://www.w3.org/2000/svg" width="252.754" height="253" viewBox="0 0 252.754 253">
  <g id="partypopper-svgrepo-com" transform="translate(-8.363 -8.596)">
    <path id="Path_70" data-name="Path 70" d="M197.915,244.31,27.183,318.6A13.714,13.714,0,0,1,9.326,300.9l74.609-173.42" transform="translate(0 -58.009)" fill="#ffb636"/>
    <path id="Path_71" data-name="Path 71" d="M9.327,323.566l5.929-13.782q.763-1.163,1.524-2.326c29.492-44.928,59.416-89.582,90.362-133.524l34.7,35.566c-26.181,17.974-111.189,105.823-129,129.125A13.538,13.538,0,0,1,9.327,323.566Z" transform="translate(-0.001 -80.678)" fill="#ffd469"/>
    <path id="Path_72" data-name="Path 72" d="M229.12,164.727c31.672,31.672,48.994,65.7,38.692,76s-44.33-7.02-76-38.692-48.994-65.7-38.692-76,44.33,7.02,76,38.692Z" transform="translate(-69.183 -55.854)" fill="#a06c33"/>
    <path id="Path_73" data-name="Path 73" d="M144.978,322.261a5.574,5.574,0,1,1-5.574-5.574A5.574,5.574,0,0,1,144.978,322.261Z" transform="translate(-61.223 -150.336)" fill="#f7f9aa"/>
    <path id="Path_74" data-name="Path 74" d="M443.458,205.537a8,8,0,1,1-8-8A8,8,0,0,1,443.458,205.537ZM390.04,312.053a8,8,0,1,0,8,8A8,8,0,0,0,390.04,312.053Z" transform="translate(-182.34 -92.196)" fill="#ffb636"/>
    <path id="Path_75" data-name="Path 75" d="M308.09,60.84a15.612,15.612,0,0,1-8.228,11.248,22.084,22.084,0,0,1-10.654,2.63,24.947,24.947,0,0,1-3.644-.269,12.06,12.06,0,0,0-7.435,1.121,4.98,4.98,0,0,0-2.71,3.3,4.983,4.983,0,0,0,1.64,3.94,11.986,11.986,0,0,0,6.579,3.185c.072.008.144.01.216.021,11.07,1.636,18.977,10.4,17.625,19.546a15.612,15.612,0,0,1-8.229,11.249,22.083,22.083,0,0,1-10.654,2.63,24.947,24.947,0,0,1-3.644-.269,12.055,12.055,0,0,0-7.435,1.121,4.98,4.98,0,0,0-2.71,3.3c-.4,2.739,2.959,6.355,8.433,7.164a5.452,5.452,0,1,1-1.6,10.787c-11.07-1.636-18.976-10.405-17.625-19.546a15.612,15.612,0,0,1,8.229-11.249,22.826,22.826,0,0,1,14.3-2.361,12.065,12.065,0,0,0,7.435-1.121,4.98,4.98,0,0,0,2.71-3.3c.4-2.694-2.856-6.232-8.174-7.116-.087-.009-.175-.016-.262-.029a22.826,22.826,0,0,1-13-6.4,14.954,14.954,0,0,1,3.607-24.4,22.826,22.826,0,0,1,14.3-2.361,12.069,12.069,0,0,0,7.435-1.121,4.98,4.98,0,0,0,2.71-3.3,4.983,4.983,0,0,0-1.64-3.94,12.058,12.058,0,0,0-6.793-3.224,5.452,5.452,0,0,1,1.595-10.788,22.826,22.826,0,0,1,13,6.4,15.613,15.613,0,0,1,4.622,13.15Z" transform="translate(-121.749 -15.926)" fill="#bea4ff"/>
    <path id="Path_76" data-name="Path 76" d="M64.454,149.709a9.065,9.065,0,1,1-9.065-9.065A9.065,9.065,0,0,1,64.454,149.709Zm162.032-10.473a10.472,10.472,0,1,0,10.472,10.472A10.472,10.472,0,0,0,226.487,139.236ZM132.964,270.658a10.472,10.472,0,1,0,10.472,10.472A10.472,10.472,0,0,0,132.964,270.658Zm138.918-47.95a6.25,6.25,0,0,0-2.685-8.421c-1.223-.631-2.682-1.469-4.372-2.438-14.846-8.517-45.735-26.238-82.107,3.128a6.249,6.249,0,0,0,7.852,9.725c29.716-23.992,53.7-10.233,68.035-2.011,1.742,1,3.388,1.944,4.856,2.7A6.249,6.249,0,0,0,271.882,222.707Z" transform="translate(-18.524 -63.747)" fill="#ff6e83"/>
    <path id="Path_77" data-name="Path 77" d="M239.945,36.339a5.574,5.574,0,1,1-5.574-5.574A5.574,5.574,0,0,1,239.945,36.339ZM41.013,10.285a5.574,5.574,0,1,0,5.574,5.574,5.573,5.573,0,0,0-5.574-5.574Zm87.4,72.739c.63-1.236,1.408-2.644,2.23-4.134,4.175-7.563,9.893-17.921,10.237-29.985.413-14.493-7.135-27.651-22.433-39.11a6.006,6.006,0,0,0-7.2,9.615c12.161,9.108,17.927,18.644,17.627,29.152-.261,9.151-4.965,17.674-8.746,24.521-.871,1.579-1.694,3.069-2.413,4.479a6.006,6.006,0,1,0,10.7,5.461Z" transform="translate(-13.212)" fill="#59cafc"/>
  </g>
</svg>
