<svg xmlns="http://www.w3.org/2000/svg" width="49.78" height="49.774" viewBox="0 0 49.78 49.774">
  <path id="help-rhombus" d="M26.888,2a4.983,4.983,0,0,0-3.509,1.468L3.472,23.375a4.912,4.912,0,0,0,0,7.017L23.379,50.3a4.912,4.912,0,0,0,7.017,0L50.3,30.392a4.912,4.912,0,0,0,0-7.017L30.4,3.468A4.983,4.983,0,0,0,26.888,2m0,12.317c6.719.274,9.63,7.042,5.674,12.094-1.045,1.244-2.712,2.065-3.558,3.135a5.207,5.207,0,0,0-.871,3.558H24.4c0-2.115,0-3.882.871-5.126.821-1.244,2.488-1.991,3.534-2.812,3.061-2.812,2.264-6.768-1.916-7.092a3.749,3.749,0,0,0-3.733,3.757H19.422a7.5,7.5,0,0,1,7.465-7.515M24.4,35.593h3.733v3.733H24.4Z" transform="translate(-1.997 -2)" fill="#58db8f"/>
</svg>
